<?xml version="1.0" encoding="UTF-8"?>
<svg id="_Слой_1" data-name="Слой_1" xmlns="http://www.w3.org/2000/svg" version="1.1" viewBox="0 0 32 32">
  <!-- Generator: Adobe Illustrator 30.4.0, SVG Export Plug-In . SVG Version: 2.1.4 Build 226)  -->
  <path d="M29.45,8.32c-.53-.56-1.2-.84-2.03-.84h-5.71v-2.86c0-.83-.29-1.5-.83-2.03-.53-.54-1.2-.83-2.03-.83h-5.71c-.83,0-1.5.29-2.03.83-.54.53-.83,1.2-.83,2.03v2.86h-5.71c-.83,0-1.5.29-2.03.84-.54.59-.83,1.23-.83,2.01v15.71c0,.79.29,1.43.83,2.01.53.56,1.2.84,2.03.84h22.85c.83,0,1.5-.29,2.03-.84.54-.59.83-1.23.83-2.01v-15.71c0-.79-.29-1.43-.83-2.01ZM13.14,4.62h5.71v2.86h-5.71v-2.86ZM27.42,26.04H4.58v-15.71h22.85v15.71ZM17.28,21.7c.37.32.55.71.55,1.16s-.18.84-.55,1.16c-.36.32-.8.48-1.31.48s-.94-.16-1.31-.48c-.37-.32-.55-.71-.55-1.16s.18-.84.55-1.16c.37-.32.8-.48,1.31-.48s.94.16,1.31.48ZM14.48,18.76c-.79-1.87-1.19-3.3-1.19-4.28,0-.9.22-1.54.65-1.92.44-.38,1.15-.57,2.16-.57,1.68,0,2.51.87,2.51,2.61,0,.5-.42,1.89-1.24,4.16-.21.58-.36.94-.44,1.06-.23.32-.57.49-1.04.49-.39,0-.7-.18-.95-.54-.07-.11-.22-.44-.46-1Z"/>
</svg>