<svg xmlns="http://www.w3.org/2000/svg" viewBox="0 0 960 960">
  <path d="M680,241.6v-1.6c0-48.5-15-90.6-44.9-126.6l-57,57c14.5,20.1,21.8,43.3,21.8,69.6v1.6h80Z"/>
  <path d="M375.7,179.8l-57.7-57.7c-25.3,34-38,73.3-38,117.8h80c0-22.3,5.2-42.3,15.7-60.2Z"/>
  <path d="M480,680c22,0,40.8-7.8,56.5-23.5,15.7-15.7,23.5-34.5,23.5-56.5s-7.8-40.8-23.5-56.5c-15.7-15.7-34.5-23.5-56.5-23.5s-40.8,7.8-56.5,23.5-23.5,34.5-23.5,56.5,7.8,40.8,23.5,56.5c15.7,15.7,34.5,23.5,56.5,23.5Z"/>
  <path d="M720,320h-40v-.4h-80v.4H240c-22,0-40.8,7.8-56.5,23.5s-23.5,34.5-23.5,56.5v400c0,22,7.8,40.8,23.5,56.5s34.5,23.5,56.5,23.5h480c22,0,40.8-7.8,56.5-23.5s23.5-34.5,23.5-56.5v-400c0-22-7.8-40.8-23.5-56.5s-34.5-23.5-56.5-23.5ZM720,800H240v-400h480v400Z"/>
  <path d="M434.5,128.4c14-5.6,29.1-8.4,45.5-8.4s23.2,1.5,33.8,4.5l61.2-61.2c-28.4-15.5-60.1-23.3-95-23.3s-74,9.7-104.8,29.1l59.4,59.4Z"/>
</svg>