<svg xmlns="http://www.w3.org/2000/svg" viewBox="0 0 512 512">
  <polygon points="28.85 457 90.27 457 263.35 55 201.94 55 28.85 457"/>
  <path d="M380.19,145.9c11.46,0,20.77-3.57,27.92-10.72s10.72-16.45,10.72-27.92-3.57-20.77-10.72-27.92c-7.15-7.15-16.45-10.72-27.92-10.72s-20.77,3.57-27.92,10.72c-7.15,7.15-10.72,16.45-10.72,27.92s3.57,20.77,10.72,27.92c7.15,7.15,16.45,10.72,27.92,10.72Z"/>
  <polygon points="413.03 358.74 413.03 233.66 413.03 191.24 413.03 177.83 278.58 177.83 278.58 233.66 352.73 233.66 352.73 358.74 265.18 358.74 265.18 414.56 352.73 414.56 357.19 414.56 408.56 414.56 413.03 414.56 483.15 414.56 483.15 358.74 413.03 358.74"/>
</svg>