<svg xmlns="http://www.w3.org/2000/svg" viewBox="0 0 512 512">
  <style>
    path, polygon {
      fill: #3c4043;
    }
    @media (prefers-color-scheme: dark) {
      path, polygon {
        fill: #cecece;
      }
    }
  </style>
  <polygon points="3.01 479.87 71.41 479.87 264.19 32.13 195.79 32.13 3.01 479.87"/>
  <path d="M394.33,133.37c12.77,0,23.13-3.98,31.09-11.94s11.94-18.33,11.94-31.09-3.98-23.13-11.94-31.09-18.33-11.94-31.09-11.94-23.13,3.98-31.09,11.94c-7.96,7.96-11.94,18.33-11.94,31.09s3.98,23.13,11.94,31.09,18.33,11.94,31.09,11.94Z"/>
  <polygon points="430.89 370.43 430.89 231.12 430.89 183.87 430.89 168.94 281.15 168.94 281.15 231.12 363.73 231.12 363.73 370.43 266.22 370.43 266.22 432.6 363.73 432.6 368.71 432.6 425.92 432.6 430.89 432.6 508.99 432.6 508.99 370.43 430.89 370.43"/>
</svg>