<!-- Thei Bundled Icons P5OcXlm6lNEGTTACtXmsPZSC -->
<svg xmlns="http://www.w3.org/2000/svg"><symbol id="chevron-right" viewBox="0 -960 960 960">
  <path d="m321-80-71-71 329-329-329-329 71-71 400 400L321-80Z"/>
</symbol><symbol id="contrast" viewBox="0 0 24 24">
  <path fill="currentColor" d="M17 3.34A10 10 0 1 1 2 12l.005-.324A10 10 0 0 1 17 3.34M8 5.072A8 8 0 0 0 12.001 20L12 4a8 8 0 0 0-4 1.072"/>
</symbol><symbol id="delete" viewBox="0 -960 960 960">
  <path d="M280-120q-33 0-56.5-23.5T200-200v-520h-40v-80h200v-40h240v40h200v80h-40v520q0 33-23.5 56.5T680-120H280Zm400-600H280v520h400v-520ZM360-280h80v-360h-80v360Zm160 0h80v-360h-80v360ZM280-720v520-520Z"/>
</symbol><symbol id="edit" viewBox="0 -960 960 960">
  <path d="M238-200q-100-5-149-42T40-349q0-65 53.5-105.5T242-503q39-3 58.5-12.5T320-542q0-26-29.5-39T193-600l7-80q103 8 151.5 41.5T400-542q0 53-38.5 83T248-423q-64 5-96 23.5T120-349q0 35 28 50.5t94 18.5l-4 80Zm317-30L390-395l345-345q20-20 47.5-20t47.5 20l70 70q20 20 20 47.5T900-575L555-230Zm-196 70q-17 4-30-9t-9-30l31-151 158 158-150 32Z"/>
</symbol><symbol id="event" viewBox="0 0 640 640">
  <path d="M232 144C218.7 144 208 154.7 208 168L208 472C208 480.4 206.6 488.5 203.9 496L504 496C517.3 496 528 485.3 528 472L528 168C528 154.7 517.3 144 504 144L232 144zM136 544C96.2 544 64 511.8 64 472L64 176C64 162.7 74.7 152 88 152C101.3 152 112 162.7 112 176L112 472C112 485.3 122.7 496 136 496C149.3 496 160 485.3 160 472L160 168C160 128.2 192.2 96 232 96L504 96C543.8 96 576 128.2 576 168L576 472C576 511.8 543.8 544 504 544L136 544zM256 216C256 202.7 266.7 192 280 192L328 192C341.3 192 352 202.7 352 216L352 264C352 277.3 341.3 288 328 288L280 288C266.7 288 256 277.3 256 264L256 216zM408 240L456 240C469.3 240 480 250.7 480 264C480 277.3 469.3 288 456 288L408 288C394.7 288 384 277.3 384 264C384 250.7 394.7 240 408 240zM280 320L456 320C469.3 320 480 330.7 480 344C480 357.3 469.3 368 456 368L280 368C266.7 368 256 357.3 256 344C256 330.7 266.7 320 280 320zM280 400L456 400C469.3 400 480 410.7 480 424C480 437.3 469.3 448 456 448L280 448C266.7 448 256 437.3 256 424C256 410.7 266.7 400 280 400z"/>
</symbol><symbol id="eye-open" viewBox="0 0 34 34">
  <path d="M30.3,11.3c-.56-.56-1.52-.56-2.08,0l-1.92,2c-1.04-.96-2.32-1.92-3.85-2.56l.8-2.72c.24-.8-.16-1.68-.96-1.92-.8-.24-1.6.24-1.84,1.04l-.8,2.72c-1.6-.32-3.53-.32-5.13,0l-.8-2.72c-.24-.8-1.04-1.28-1.84-1.04s-1.2,1.12-.96,1.92l.8,2.72c-1.52.72-2.8,1.6-3.85,2.56l-1.92-2c-.56-.56-1.52-.56-2.08,0-.56.56-.56,1.52,0,2.16l2,2.16c-1.12,1.52-1.6,2.8-1.6,3.21,0,1.04,4.09,9.14,12.74,9.14s12.74-8.09,12.74-9.14-.56-1.68-1.6-3.21l2-2.16c.56-.56.56-1.52,0-2.16h.16ZM17.08,24.92c-5.85,0-8.82-4.57-9.7-6.09.64-1.2,2.72-4.33,6.41-5.61h.24c.88-.24,1.92-.4,3.05-.4s2.08.16,3.05.4h.24c3.77,1.2,5.77,4.33,6.41,5.61-.88,1.52-3.85,6.09-9.7,6.09ZM18.2,13.95c-2.56-.64-5.13.96-5.77,3.77-.64,2.64.96,5.37,3.53,6.01.4.08.72.16,1.12.16.88,0,1.68-.24,2.48-.72,1.12-.72,1.84-1.76,2.16-3.05v-.08c.32-1.28.08-2.64-.56-3.77-.64-1.12-1.68-1.92-2.97-2.24v-.08ZM18.84,19.31c-.08.48-.4.96-.8,1.2s-.88.32-1.36.24c-.96-.24-1.6-1.28-1.36-2.4.24-.88.96-1.44,1.76-1.44s.32,0,.4,0h0c.48.16.88.4,1.12.88.24.4.32.96.16,1.52h.08Z"/>
</symbol><symbol id="font-sans" viewBox="0 0 24 24">
  <path fill="currentColor" d="M7 4h12v2h-9v6h8v2h-8v7H7z"/>
</symbol><symbol id="font-serif" viewBox="0 0 24 24">
  <path fill="currentColor" d="M5 4h14v4h-1.5C17 6 17 5 15 5h-5v7h3c1 0 2-.5 2-2h1v5h-1c0-1.5-1-2-2-2h-3v4.5c0 2.5 3.5 2.5 3.5 2.5v1H5v-1c2-.5 2-1.5 2-2.5v-10c0-1 0-2-2-2.5z"/>
</symbol><symbol id="globe" viewBox="0 -960 960 960">
  <path d="M325-111.5q-73-31.5-127.5-86t-86-127.5Q80-398 80-480.5t31.5-155q31.5-72.5 86-127t127.5-86Q398-880 480.5-880t155 31.5q72.5 31.5 127 86t86 127Q880-563 880-480.5T848.5-325q-31.5 73-86 127.5t-127 86Q563-80 480.5-80T325-111.5ZM480-162q26-36 45-75t31-83H404q12 44 31 83t45 75Zm-104-16q-18-33-31.5-68.5T322-320H204q29 50 72.5 87t99.5 55Zm208 0q56-18 99.5-55t72.5-87H638q-9 38-22.5 73.5T584-178ZM170-400h136q-3-20-4.5-39.5T300-480q0-21 1.5-40.5T306-560H170q-5 20-7.5 39.5T160-480q0 21 2.5 40.5T170-400Zm216 0h188q3-20 4.5-39.5T580-480q0-21-1.5-40.5T574-560H386q-3 20-4.5 39.5T380-480q0 21 1.5 40.5T386-400Zm268 0h136q5-20 7.5-39.5T800-480q0-21-2.5-40.5T790-560H654q3 20 4.5 39.5T660-480q0 21-1.5 40.5T654-400Zm-16-240h118q-29-50-72.5-87T584-782q18 33 31.5 68.5T638-640Zm-234 0h152q-12-44-31-83t-45-75q-26 36-45 75t-31 83Zm-200 0h118q9-38 22.5-73.5T376-782q-56 18-99.5 55T204-640Z"/>
</symbol><symbol id="history" viewBox="0 -960 960 960">
  <path d="M480-120q-138 0-240.5-91.5T122-440h82q14 104 92.5 172T480-200q117 0 198.5-81.5T760-480q0-117-81.5-198.5T480-760q-69 0-129 32t-101 88h110v80H120v-240h80v94q51-64 124.5-99T480-840q75 0 140.5 28.5t114 77q48.5 48.5 77 114T840-480q0 75-28.5 140.5t-77 114q-48.5 48.5-114 77T480-120Zm112-192L440-464v-216h80v184l128 128-56 56Z"/>
</symbol><symbol id="home" viewBox="0 0 24 24">
  <path d="M9.82,20.75v-6.53h4.36v6.53h5.44v-8.71h3.27L12,2.25,1.11,12.04h3.27v8.71h5.44Z"/>
</symbol><symbol id="loading" viewBox="0 0 36 36">
  <style>
    .box5532 {
    			fill:currentColor;
    			transform-origin: 50% 50%;
    		}

    		@keyframes box5532-1 {
    			9.0909090909% {
    				transform: translate(-12px, 0);
    			}

    			18.1818181818% {
    				transform: translate(0px, 0);
    			}

    			27.2727272727% {
    				transform: translate(0px, 0);
    			}

    			36.3636363636% {
    				transform: translate(12px, 0);
    			}

    			45.4545454545% {
    				transform: translate(12px, 12px);
    			}

    			54.5454545455% {
    				transform: translate(12px, 12px);
    			}

    			63.6363636364% {
    				transform: translate(12px, 12px);
    			}

    			72.7272727273% {
    				transform: translate(12px, 0px);
    			}

    			81.8181818182% {
    				transform: translate(0px, 0px);
    			}

    			90.9090909091% {
    				transform: translate(-12px, 0px);
    			}

    			100% {
    				transform: translate(0px, 0px);
    			}
    		}

    		.box5532:nth-child(1) {
    			animation: box5532-1 4s infinite;

    		}

    		@keyframes box5532-2 {
    			9.0909090909% {
    				transform: translate(0, 0);
    			}

    			18.1818181818% {
    				transform: translate(12px, 0);
    			}

    			27.2727272727% {
    				transform: translate(0px, 0);
    			}

    			36.3636363636% {
    				transform: translate(12px, 0);
    			}

    			45.4545454545% {
    				transform: translate(12px, 12px);
    			}

    			54.5454545455% {
    				transform: translate(12px, 12px);
    			}

    			63.6363636364% {
    				transform: translate(12px, 12px);
    			}

    			72.7272727273% {
    				transform: translate(12px, 12px);
    			}

    			81.8181818182% {
    				transform: translate(0px, 12px);
    			}

    			90.9090909091% {
    				transform: translate(0px, 12px);
    			}

    			100% {
    				transform: translate(0px, 0px);
    			}
    		}

    		.box5532:nth-child(2) {
    			animation: box5532-2 4s infinite;
    		}

    		@keyframes box5532-3 {
    			9.0909090909% {
    				transform: translate(-12px, 0);
    			}

    			18.1818181818% {
    				transform: translate(-12px, 0);
    			}

    			27.2727272727% {
    				transform: translate(0px, 0);
    			}

    			36.3636363636% {
    				transform: translate(-12px, 0);
    			}

    			45.4545454545% {
    				transform: translate(-12px, 0);
    			}

    			54.5454545455% {
    				transform: translate(-12px, 0);
    			}

    			63.6363636364% {
    				transform: translate(-12px, 0);
    			}

    			72.7272727273% {
    				transform: translate(-12px, 0);
    			}

    			81.8181818182% {
    				transform: translate(-12px, -12px);
    			}

    			90.9090909091% {
    				transform: translate(0px, -12px);
    			}

    			100% {
    				transform: translate(0px, 0px);
    			}
    		}

    		.box5532:nth-child(3) {
    			animation: box5532-3 4s infinite;
    		}

    		@keyframes box5532-4 {
    			9.0909090909% {
    				transform: translate(-12px, 0);
    			}

    			18.1818181818% {
    				transform: translate(-12px, 0);
    			}

    			27.2727272727% {
    				transform: translate(-12px, -12px);
    			}

    			36.3636363636% {
    				transform: translate(0px, -12px);
    			}

    			45.4545454545% {
    				transform: translate(0px, 0px);
    			}

    			54.5454545455% {
    				transform: translate(0px, -12px);
    			}

    			63.6363636364% {
    				transform: translate(0px, -12px);
    			}

    			72.7272727273% {
    				transform: translate(0px, -12px);
    			}

    			81.8181818182% {
    				transform: translate(-12px, -12px);
    			}

    			90.9090909091% {
    				transform: translate(-12px, 0px);
    			}

    			100% {
    				transform: translate(0px, 0px);
    			}
    		}

    		.box5532:nth-child(4) {
    			animation: box5532-4 4s infinite;
    		}

    		@keyframes box5532-5 {
    			9.0909090909% {
    				transform: translate(0, 0);
    			}

    			18.1818181818% {
    				transform: translate(0, 0);
    			}

    			27.2727272727% {
    				transform: translate(0, 0);
    			}

    			36.3636363636% {
    				transform: translate(12px, 0);
    			}

    			45.4545454545% {
    				transform: translate(12px, 0);
    			}

    			54.5454545455% {
    				transform: translate(12px, 0);
    			}

    			63.6363636364% {
    				transform: translate(12px, 0);
    			}

    			72.7272727273% {
    				transform: translate(12px, 0);
    			}

    			81.8181818182% {
    				transform: translate(12px, -12px);
    			}

    			90.9090909091% {
    				transform: translate(0px, -12px);
    			}

    			100% {
    				transform: translate(0px, 0px);
    			}
    		}

    		.box5532:nth-child(5) {
    			animation: box5532-5 4s infinite;
    		}

    		@keyframes box5532-6 {
    			9.0909090909% {
    				transform: translate(0, 0);
    			}

    			18.1818181818% {
    				transform: translate(-12px, 0);
    			}

    			27.2727272727% {
    				transform: translate(-12px, 0);
    			}

    			36.3636363636% {
    				transform: translate(0px, 0);
    			}

    			45.4545454545% {
    				transform: translate(0px, 0);
    			}

    			54.5454545455% {
    				transform: translate(0px, 0);
    			}

    			63.6363636364% {
    				transform: translate(0px, 0);
    			}

    			72.7272727273% {
    				transform: translate(0px, 12px);
    			}

    			81.8181818182% {
    				transform: translate(-12px, 12px);
    			}

    			90.9090909091% {
    				transform: translate(-12px, 0px);
    			}

    			100% {
    				transform: translate(0px, 0px);
    			}
    		}

    		.box5532:nth-child(6) {
    			animation: box5532-6 4s infinite;
    		}

    		@keyframes box5532-7 {
    			9.0909090909% {
    				transform: translate(12px, 0);
    			}

    			18.1818181818% {
    				transform: translate(12px, 0);
    			}

    			27.2727272727% {
    				transform: translate(12px, 0);
    			}

    			36.3636363636% {
    				transform: translate(0px, 0);
    			}

    			45.4545454545% {
    				transform: translate(0px, -12px);
    			}

    			54.5454545455% {
    				transform: translate(12px, -12px);
    			}

    			63.6363636364% {
    				transform: translate(0px, -12px);
    			}

    			72.7272727273% {
    				transform: translate(0px, -12px);
    			}

    			81.8181818182% {
    				transform: translate(0px, 0px);
    			}

    			90.9090909091% {
    				transform: translate(12px, 0px);
    			}

    			100% {
    				transform: translate(0px, 0px);
    			}
    		}

    		.box5532:nth-child(7) {
    			animation: box5532-7 4s infinite;
    		}

    		@keyframes box5532-8 {
    			9.0909090909% {
    				transform: translate(0, 0);
    			}

    			18.1818181818% {
    				transform: translate(-12px, 0);
    			}

    			27.2727272727% {
    				transform: translate(-12px, -12px);
    			}

    			36.3636363636% {
    				transform: translate(0px, -12px);
    			}

    			45.4545454545% {
    				transform: translate(0px, -12px);
    			}

    			54.5454545455% {
    				transform: translate(0px, -12px);
    			}

    			63.6363636364% {
    				transform: translate(0px, -12px);
    			}

    			72.7272727273% {
    				transform: translate(0px, -12px);
    			}

    			81.8181818182% {
    				transform: translate(12px, -12px);
    			}

    			90.9090909091% {
    				transform: translate(12px, 0px);
    			}

    			100% {
    				transform: translate(0px, 0px);
    			}
    		}

    		.box5532:nth-child(8) {
    			animation: box5532-8 4s infinite;
    		}

    		@keyframes box5532-9 {
    			9.0909090909% {
    				transform: translate(-12px, 0);
    			}

    			18.1818181818% {
    				transform: translate(-12px, 0);
    			}

    			27.2727272727% {
    				transform: translate(0px, 0);
    			}

    			36.3636363636% {
    				transform: translate(-12px, 0);
    			}

    			45.4545454545% {
    				transform: translate(0px, 0);
    			}

    			54.5454545455% {
    				transform: translate(0px, 0);
    			}

    			63.6363636364% {
    				transform: translate(-12px, 0);
    			}

    			72.7272727273% {
    				transform: translate(-12px, 0);
    			}

    			81.8181818182% {
    				transform: translate(-24px, 0);
    			}

    			90.9090909091% {
    				transform: translate(-12px, 0);
    			}

    			100% {
    				transform: translate(0px, 0);
    			}
    		}

    		.box5532:nth-child(9) {
    			animation: box5532-9 4s infinite;
    		}
  </style>
  <g>
    <rect class="box5532" x="13" y="1" rx="1" width="10" height="10" />
    <rect class="box5532" x="13" y="1" rx="1" width="10" height="10" />
    <rect class="box5532" x="25" y="25" rx="1" width="10" height="10" />
    <rect class="box5532" x="13" y="13" rx="1" width="10" height="10" />
    <rect class="box5532" x="13" y="13" rx="1" width="10" height="10" />
    <rect class="box5532" x="25" y="13" rx="1" width="10" height="10" />
    <rect class="box5532" x="1" y="25" rx="1" width="10" height="10" />
    <rect class="box5532" x="13" y="25" rx="1" width="10" height="10" />
    <rect class="box5532" x="25" y="25" rx="1" width="10" height="10" />
  </g>
</symbol><symbol id="lock-close" viewBox="0 -960 960 960">
  <path d="M240-80q-33 0-56.5-23.5T160-160v-400q0-33 23.5-56.5T240-640h40v-80q0-83 58.5-141.5T480-920q83 0 141.5 58.5T680-720v80h40q33 0 56.5 23.5T800-560v400q0 33-23.5 56.5T720-80H240Zm0-80h480v-400H240v400Zm296.5-143.5Q560-327 560-360t-23.5-56.5Q513-440 480-440t-56.5 23.5Q400-393 400-360t23.5 56.5Q447-280 480-280t56.5-23.5ZM360-640h240v-80q0-50-35-85t-85-35q-50 0-85 35t-35 85v80ZM240-160v-400 400Z"/>
</symbol><symbol id="lock-open" viewBox="0 -960 960 960">
  <path d="M240-160h480v-400H240v400Zm296.5-143.5Q560-327 560-360t-23.5-56.5Q513-440 480-440t-56.5 23.5Q400-393 400-360t23.5 56.5Q447-280 480-280t56.5-23.5ZM240-160v-400 400Zm0 80q-33 0-56.5-23.5T160-160v-400q0-33 23.5-56.5T240-640h280v-80q0-83 58.5-141.5T720-920q83 0 141.5 58.5T920-720h-80q0-50-35-85t-85-35q-50 0-85 35t-35 85v80h120q33 0 56.5 23.5T800-560v400q0 33-23.5 56.5T720-80H240Z"/>
</symbol><symbol id="lock-partial" viewBox="0 -960 960 960">
  <path d="M240-640h360v-80q0-50-35-85t-85-35q-50 0-85 35t-35 85h-80q0-83 58.5-141.5T480-920q83 0 141.5 58.5T680-720v80h40q33 0 56.5 23.5T800-560v400q0 33-23.5 56.5T720-80H240q-33 0-56.5-23.5T160-160v-400q0-33 23.5-56.5T240-640Zm0 480h480v-400H240v400Zm296.5-143.5Q560-327 560-360t-23.5-56.5Q513-440 480-440t-56.5 23.5Q400-393 400-360t23.5 56.5Q447-280 480-280t56.5-23.5ZM240-160v-400 400Z"/>
</symbol><symbol id="missing" viewBox="0 0 384 512">
  <path d="M64 390.3L153.5 256 64 121.7l0 268.6zM102.5 448l179.1 0L192 313.7 102.5 448zm128-192L320 390.3l0-268.6L230.5 256zM281.5 64L102.5 64 192 198.3 281.5 64zM0 48C0 21.5 21.5 0 48 0L336 0c26.5 0 48 21.5 48 48l0 416c0 26.5-21.5 48-48 48L48 512c-26.5 0-48-21.5-48-48L0 48z" />
</symbol><symbol id="moon" viewBox="0 0 640 640">
  <path d="M320 64C178.6 64 64 178.6 64 320C64 461.4 178.6 576 320 576C388.8 576 451.3 548.8 497.3 504.6C504.6 497.6 506.7 486.7 502.6 477.5C498.5 468.3 488.9 462.6 478.8 463.4C473.9 463.8 469 464 464 464C362.4 464 280 381.6 280 280C280 207.9 321.5 145.4 382.1 115.2C391.2 110.7 396.4 100.9 395.2 90.8C394 80.7 386.6 72.5 376.7 70.3C358.4 66.2 339.4 64 320 64z"/>
</symbol><symbol id="palette" viewBox="0 -960 960 960">
  <path d="M480-80q-82 0-155-31.5t-127.5-86Q143-252 111.5-325T80-480q0-83 32.5-156t88-127Q256-817 330-848.5T488-880q80 0 151 27.5t124.5 76q53.5 48.5 85 115T880-518q0 115-70 176.5T640-280h-74q-9 0-12.5 5t-3.5 11q0 12 15 34.5t15 51.5q0 50-27.5 74T480-80Zm0-400Zm-177 23q17-17 17-43t-17-43q-17-17-43-17t-43 17q-17 17-17 43t17 43q17 17 43 17t43-17Zm120-160q17-17 17-43t-17-43q-17-17-43-17t-43 17q-17 17-17 43t17 43q17 17 43 17t43-17Zm200 0q17-17 17-43t-17-43q-17-17-43-17t-43 17q-17 17-17 43t17 43q17 17 43 17t43-17Zm120 160q17-17 17-43t-17-43q-17-17-43-17t-43 17q-17 17-17 43t17 43q17 17 43 17t43-17ZM480-160q9 0 14.5-5t5.5-13q0-14-15-33t-15-57q0-42 29-67t71-25h70q66 0 113-38.5T800-518q0-121-92.5-201.5T488-800q-136 0-232 93t-96 227q0 133 93.5 226.5T480-160Z"/>
</symbol><symbol id="person-key" viewBox="0 -960 960 960">
  <path d="M120-160v-112q0-34 17.5-62.5T184-378q62-31 126-46.5T440-440q20 0 40 1.5t40 4.5q-4 58 21 109.5t73 84.5v80H120ZM760-40l-60-60v-186q-44-13-72-49.5T600-420q0-58 41-99t99-41q58 0 99 41t41 99q0 45-25.5 80T790-290l50 50-60 60 60 60-80 80ZM440-480q-66 0-113-47t-47-113q0-66 47-113t113-47q66 0 113 47t47 113q0 66-47 113t-113 47Zm328.5 68.5Q780-423 780-440t-11.5-28.5Q757-480 740-480t-28.5 11.5Q700-457 700-440t11.5 28.5Q723-400 740-400t28.5-11.5Z"/>
</symbol><symbol id="plus" viewBox="0 -960 960 960">
  <path d="M440-120v-320H120v-80h320v-320h80v320h320v80H520v320h-80Z"/>
</symbol><symbol id="plus-circle" viewBox="0 -960 960 960">
  <path d="M440-280h80v-160h160v-80H520v-160h-80v160H280v80h160v160Zm40 200q-83 0-156-31.5T197-197q-54-54-85.5-127T80-480q0-83 31.5-156T197-763q54-54 127-85.5T480-880q83 0 156 31.5T763-763q54 54 85.5 127T880-480q0 83-31.5 156T763-197q-54 54-127 85.5T480-80Zm0-80q134 0 227-93t93-227q0-134-93-227t-227-93q-134 0-227 93t-93 227q0 134 93 227t227 93Zm0-320Z"/>
</symbol><symbol id="power" viewBox="0 -960 960 960">
  <path d="M480-80q-83 0-156-31.5T197-197q-54-54-85.5-127T80-480q0-84 31.5-156.5T197-763l56 56q-44 44-68.5 102T160-480q0 134 93 227t227 93q134 0 227-93t93-227q0-67-24.5-125T707-707l56-56q54 54 85.5 126.5T880-480q0 83-31.5 156T763-197q-54 54-127 85.5T480-80Zm-40-360v-440h80v440h-80Z"/>
</symbol><symbol id="project" viewBox="0 -960 960 960">
  <path d="M440-183v-274L200-596v274l240 139Zm80 0 240-139v-274L520-457v274Zm-80 92L160-252q-19-11-29.5-29T120-321v-318q0-22 10.5-40t29.5-29l280-161q19-11 40-11t40 11l280 161q19 11 29.5 29t10.5 40v318q0 22-10.5 40T800-252L520-91q-19 11-40 11t-40-11Zm200-528 77-44-237-137-78 45 238 136Zm-160 93 78-45-237-137-78 45 237 137Z"/>
</symbol><symbol id="sun" viewBox="0 0 640 640">
  <path d="M210.2 53.9C217.6 50.8 226 51.7 232.7 56.1L320.5 114.3L408.3 56.1C415 51.7 423.4 50.9 430.8 53.9C438.2 56.9 443.4 63.5 445 71.3L465.9 174.5L569.1 195.4C576.9 197 583.5 202.4 586.5 209.7C589.5 217 588.7 225.5 584.3 232.2L526.1 320L584.3 407.8C588.7 414.5 589.5 422.9 586.5 430.3C583.5 437.7 576.9 443.1 569.1 444.6L465.8 465.4L445 568.7C443.4 576.5 438 583.1 430.7 586.1C423.4 589.1 414.9 588.3 408.2 583.9L320.4 525.7L232.6 583.9C225.9 588.3 217.5 589.1 210.1 586.1C202.7 583.1 197.3 576.5 195.8 568.7L175 465.4L71.7 444.5C63.9 442.9 57.3 437.5 54.3 430.2C51.3 422.9 52.1 414.4 56.5 407.7L114.7 320L56.5 232.2C52.1 225.5 51.3 217.1 54.3 209.7C57.3 202.3 63.9 196.9 71.7 195.4L175 174.6L195.9 71.3C197.5 63.5 202.9 56.9 210.2 53.9zM239.6 320C239.6 275.6 275.6 239.6 320 239.6C364.4 239.6 400.4 275.6 400.4 320C400.4 364.4 364.4 400.4 320 400.4C275.6 400.4 239.6 364.4 239.6 320zM448.4 320C448.4 249.1 390.9 191.6 320 191.6C249.1 191.6 191.6 249.1 191.6 320C191.6 390.9 249.1 448.4 320 448.4C390.9 448.4 448.4 390.9 448.4 320z"/>
</symbol><symbol id="thei" viewBox="0 0 512 512">
  <polygon points="28.85 457 90.27 457 263.35 55 201.94 55 28.85 457"/>
  <path d="M380.19,145.9c11.46,0,20.77-3.57,27.92-10.72s10.72-16.45,10.72-27.92-3.57-20.77-10.72-27.92c-7.15-7.15-16.45-10.72-27.92-10.72s-20.77,3.57-27.92,10.72c-7.15,7.15-10.72,16.45-10.72,27.92s3.57,20.77,10.72,27.92c7.15,7.15,16.45,10.72,27.92,10.72Z"/>
  <polygon points="413.03 358.74 413.03 233.66 413.03 191.24 413.03 177.83 278.58 177.83 278.58 233.66 352.73 233.66 352.73 358.74 265.18 358.74 265.18 414.56 352.73 414.56 357.19 414.56 408.56 414.56 413.03 414.56 483.15 414.56 483.15 358.74 413.03 358.74"/>
</symbol><symbol id="warning" viewBox="0 -960 960 960">
  <path d="m40-120 440-760 440 760H40Zm138-80h604L480-720 178-200Zm330.5-51.5Q520-263 520-280t-11.5-28.5Q497-320 480-320t-28.5 11.5Q440-297 440-280t11.5 28.5Q463-240 480-240t28.5-11.5ZM440-360h80v-200h-80v200Zm40-100Z"/>
</symbol></svg>