<svg xmlns="http://www.w3.org/2000/svg" version="1.1" xmlns:xlink="http://www.w3.org/1999/xlink" viewBox="0 0 960 960">
  <defs>
    <linearGradient id="gradient" x1="0" y1="2" x2="960" y2="962" gradientTransform="translate(0 962) scale(1 -1)" gradientUnits="userSpaceOnUse">
      <stop offset="0" stop-color="currentColor" stop-opacity=".05"/>
      <stop offset="1" stop-color="currentColor" stop-opacity=".2"/>
    </linearGradient>
  </defs>
  <rect fill="url(#gradient)" width="960" height="960"/>
  <path fill="currentColor" d="M441.67,764.62v-262.58l-230-133.21v262.58l230,133.21ZM518.33,764.62l230-133.21v-262.58l-230,133.21v262.58ZM441.67,852.79l-268.33-154.29c-12.14-7.02-21.56-16.29-28.27-27.79s-10.06-24.27-10.06-38.33v-304.75c0-14.06,3.35-26.83,10.06-38.33s16.13-20.77,28.27-27.79L441.67,107.21c12.14-7.02,24.92-10.54,38.33-10.54s26.19,3.52,38.33,10.54l268.33,154.29c12.14,7.02,21.56,16.29,28.27,27.79s10.06,24.27,10.06,38.33v304.75c0,14.06-3.35,26.83-10.06,38.33s-16.13,20.77-28.27,27.79l-268.33,154.29c-12.14,7.02-24.92,10.54-38.33,10.54s-26.19-3.52-38.33-10.54ZM633.33,346.79l73.79-42.17-227.12-131.29-74.75,43.12,228.08,130.33ZM480,435.92l74.75-43.12-227.12-131.29-74.75,43.12,227.12,131.29Z"/>
</svg>