<svg xmlns="http://www.w3.org/2000/svg" version="1.1" xmlns:xlink="http://www.w3.org/1999/xlink" viewBox="0 0 960 960">
  <defs>
    <linearGradient id="gradient" x1="0" y1="960" x2="960" y2="0" gradientUnits="userSpaceOnUse">
      <stop offset="0" stop-color="currentColor" stop-opacity=".1"/>
      <stop offset="1" stop-color="currentColor" stop-opacity=".3"/>
    </linearGradient>
  </defs>
  <rect fill="url(#gradient)" width="960" height="960"/>
  <path fill="currentColor" d="M480,581.43c-52.05,0-96.61-18.53-133.68-55.6-37.07-37.07-55.6-81.63-55.6-133.68s18.53-96.61,55.6-133.68c37.07-37.07,81.63-55.6,133.68-55.6s96.61,18.53,133.68,55.6c37.07,37.07,55.6,81.63,55.6,133.68s-18.53,96.61-55.6,133.68c-37.07,37.07-81.63,55.6-133.68,55.6ZM101.43,960v-132.5c0-26.03,6.7-50.48,20.11-73.35,13.41-22.87,31.94-40.22,55.6-52.05,40.22-20.51,85.57-37.86,136.05-52.05,50.48-14.2,106.08-21.29,166.81-21.29s116.33,7.1,166.81,21.29,95.82,31.55,136.05,52.05c23.66,11.83,42.19,29.18,55.6,52.05,13.41,22.87,20.11,47.32,20.11,73.35v132.5H101.43Z"/>
</svg>